<mxfile host="65bd71144e">
    <diagram id="UE4ciwYyi7RGwAq1MsvH" name="Use case">
        <mxGraphModel dx="836" dy="1317" grid="0" gridSize="10" guides="1" tooltips="1" connect="1" arrows="1" fold="1" page="1" pageScale="1" pageWidth="1100" pageHeight="850" background="#ffffff" math="0" shadow="0">
            <root>
                <mxCell id="0"/>
                <mxCell id="1" parent="0"/>
                <mxCell id="33" value="" style="rounded=0;whiteSpace=wrap;html=1;strokeColor=#000000;strokeWidth=3;fontFamily=Tahoma;fontSize=17;fontColor=#000000;fillColor=none;gradientColor=default;" parent="1" vertex="1">
                    <mxGeometry x="293" y="36" width="498" height="769" as="geometry"/>
                </mxCell>
                <mxCell id="9" style="edgeStyle=none;html=1;entryX=0;entryY=0.5;entryDx=0;entryDy=0;strokeColor=#000000;strokeWidth=3;fontFamily=Tahoma;fontSize=17;fontColor=#000000;" parent="1" source="2" target="5" edge="1">
                    <mxGeometry relative="1" as="geometry"/>
                </mxCell>
                <mxCell id="10" style="edgeStyle=none;html=1;entryX=0;entryY=0.5;entryDx=0;entryDy=0;strokeColor=#000000;strokeWidth=3;fontFamily=Tahoma;fontSize=17;fontColor=#000000;" parent="1" source="2" target="6" edge="1">
                    <mxGeometry relative="1" as="geometry"/>
                </mxCell>
                <mxCell id="11" style="edgeStyle=none;html=1;entryX=0.013;entryY=0.413;entryDx=0;entryDy=0;entryPerimeter=0;strokeColor=#000000;strokeWidth=3;fontFamily=Tahoma;fontSize=17;fontColor=#000000;" parent="1" source="2" target="7" edge="1">
                    <mxGeometry relative="1" as="geometry"/>
                </mxCell>
                <mxCell id="14" style="edgeStyle=none;html=1;entryX=0;entryY=0.5;entryDx=0;entryDy=0;strokeColor=#000000;strokeWidth=3;fontFamily=Tahoma;fontSize=17;fontColor=#000000;" parent="1" source="2" target="4" edge="1">
                    <mxGeometry relative="1" as="geometry"/>
                </mxCell>
                <mxCell id="30" style="edgeStyle=none;html=1;entryX=0;entryY=0.5;entryDx=0;entryDy=0;strokeColor=#000000;strokeWidth=3;fontFamily=Tahoma;fontSize=17;fontColor=#000000;" parent="1" source="2" target="29" edge="1">
                    <mxGeometry relative="1" as="geometry"/>
                </mxCell>
                <mxCell id="2" value="&lt;b&gt;&lt;font color=&quot;#000000&quot;&gt;Farmer&lt;/font&gt;&lt;/b&gt;" style="shape=umlActor;verticalLabelPosition=bottom;verticalAlign=top;html=1;outlineConnect=0;strokeColor=#000000;strokeWidth=3;" parent="1" vertex="1">
                    <mxGeometry x="149" y="350" width="30" height="60" as="geometry"/>
                </mxCell>
                <mxCell id="18" style="edgeStyle=none;html=1;strokeColor=#000000;strokeWidth=3;fontFamily=Tahoma;fontSize=17;fontColor=#000000;" parent="1" source="4" target="17" edge="1">
                    <mxGeometry relative="1" as="geometry"/>
                </mxCell>
                <mxCell id="4" value="&lt;b&gt;&lt;font style=&quot;font-size: 17px;&quot;&gt;Login&lt;br&gt;&amp;amp; &lt;br&gt;Registration&lt;/font&gt;&lt;/b&gt;" style="ellipse;whiteSpace=wrap;html=1;strokeColor=#000000;strokeWidth=3;fontSize=16;fontColor=#000000;fillColor=#FFFFFF;" parent="1" vertex="1">
                    <mxGeometry x="462" y="204" width="160" height="80" as="geometry"/>
                </mxCell>
                <mxCell id="5" value="&lt;span style=&quot;font-size: 17px;&quot;&gt;&lt;b&gt;Add Products&lt;/b&gt;&lt;/span&gt;" style="ellipse;whiteSpace=wrap;html=1;strokeColor=#000000;strokeWidth=3;fontSize=16;fontColor=#000000;fillColor=#FFFFFF;" parent="1" vertex="1">
                    <mxGeometry x="390" y="290" width="160" height="80" as="geometry"/>
                </mxCell>
                <mxCell id="6" value="&lt;span style=&quot;font-size: 17px;&quot;&gt;&lt;b&gt;Updates profile&lt;/b&gt;&lt;/span&gt;" style="ellipse;whiteSpace=wrap;html=1;strokeColor=#000000;strokeWidth=3;fontSize=16;fontColor=#000000;fillColor=#FFFFFF;" parent="1" vertex="1">
                    <mxGeometry x="490" y="385" width="160" height="80" as="geometry"/>
                </mxCell>
                <mxCell id="7" value="&lt;span style=&quot;font-size: 17px;&quot;&gt;&lt;b&gt;Tracks sales&lt;/b&gt;&lt;/span&gt;" style="ellipse;whiteSpace=wrap;html=1;strokeColor=#000000;strokeWidth=3;fontSize=16;fontColor=#000000;fillColor=#FFFFFF;" parent="1" vertex="1">
                    <mxGeometry x="364" y="482" width="160" height="80" as="geometry"/>
                </mxCell>
                <mxCell id="16" style="edgeStyle=none;html=1;entryX=1;entryY=0.5;entryDx=0;entryDy=0;strokeColor=#000000;strokeWidth=3;fontFamily=Tahoma;fontSize=17;fontColor=#000000;" parent="1" source="15" target="4" edge="1">
                    <mxGeometry relative="1" as="geometry"/>
                </mxCell>
                <mxCell id="23" style="edgeStyle=none;html=1;entryX=1;entryY=0.5;entryDx=0;entryDy=0;strokeColor=#000000;strokeWidth=3;fontFamily=Tahoma;fontSize=17;fontColor=#000000;" parent="1" source="15" target="6" edge="1">
                    <mxGeometry relative="1" as="geometry"/>
                </mxCell>
                <mxCell id="25" style="edgeStyle=none;html=1;entryX=1;entryY=0.5;entryDx=0;entryDy=0;strokeColor=#000000;strokeWidth=3;fontFamily=Tahoma;fontSize=17;fontColor=#000000;" parent="1" source="15" target="24" edge="1">
                    <mxGeometry relative="1" as="geometry"/>
                </mxCell>
                <mxCell id="27" style="edgeStyle=none;html=1;strokeColor=#000000;strokeWidth=3;fontFamily=Tahoma;fontSize=17;fontColor=#000000;entryX=1;entryY=0.5;entryDx=0;entryDy=0;" parent="1" source="15" target="26" edge="1">
                    <mxGeometry relative="1" as="geometry"/>
                </mxCell>
                <mxCell id="31" style="edgeStyle=none;html=1;entryX=1;entryY=0.5;entryDx=0;entryDy=0;strokeColor=#000000;strokeWidth=3;fontFamily=Tahoma;fontSize=17;fontColor=#000000;" parent="1" source="15" target="29" edge="1">
                    <mxGeometry relative="1" as="geometry"/>
                </mxCell>
                <mxCell id="15" value="&lt;b&gt;&lt;font color=&quot;#000000&quot;&gt;Customer&lt;/font&gt;&lt;/b&gt;" style="shape=umlActor;verticalLabelPosition=bottom;verticalAlign=top;html=1;outlineConnect=0;strokeColor=#000000;strokeWidth=3;" parent="1" vertex="1">
                    <mxGeometry x="906" y="475" width="30" height="60" as="geometry"/>
                </mxCell>
                <mxCell id="17" value="&lt;span style=&quot;font-size: 17px;&quot;&gt;&lt;b&gt;Validation&lt;/b&gt;&lt;/span&gt;" style="ellipse;whiteSpace=wrap;html=1;strokeColor=#000000;strokeWidth=3;fontSize=16;fontColor=#000000;fillColor=#FFFFFF;" parent="1" vertex="1">
                    <mxGeometry x="462" y="62" width="160" height="80" as="geometry"/>
                </mxCell>
                <mxCell id="20" value="&lt;font color=&quot;#000000&quot;&gt;&lt;span style=&quot;font-size: 16px;&quot;&gt;&lt;b&gt;&amp;lt;&amp;lt; includes &amp;gt;&amp;gt;&lt;/b&gt;&lt;/span&gt;&lt;/font&gt;" style="text;html=1;strokeColor=none;fillColor=none;align=center;verticalAlign=middle;whiteSpace=wrap;rounded=0;strokeWidth=3;" parent="1" vertex="1">
                    <mxGeometry x="567" y="154" width="125" height="30" as="geometry"/>
                </mxCell>
                <mxCell id="24" value="&lt;span style=&quot;font-size: 17px;&quot;&gt;&lt;b&gt;Search products&lt;/b&gt;&lt;/span&gt;" style="ellipse;whiteSpace=wrap;html=1;strokeColor=#000000;strokeWidth=3;fontSize=16;fontColor=#000000;fillColor=#FFFFFF;" parent="1" vertex="1">
                    <mxGeometry x="480" y="610" width="160" height="80" as="geometry"/>
                </mxCell>
                <mxCell id="26" value="&lt;span style=&quot;font-size: 17px;&quot;&gt;&lt;b&gt;Search Farmers&lt;/b&gt;&lt;/span&gt;" style="ellipse;whiteSpace=wrap;html=1;strokeColor=#000000;strokeWidth=3;fontSize=16;fontColor=#000000;fillColor=#FFFFFF;" parent="1" vertex="1">
                    <mxGeometry x="549.5" y="506" width="160" height="80" as="geometry"/>
                </mxCell>
                <mxCell id="29" value="&lt;span style=&quot;font-size: 17px;&quot;&gt;&lt;b&gt;Send messages&lt;/b&gt;&lt;/span&gt;" style="ellipse;whiteSpace=wrap;html=1;strokeColor=#000000;strokeWidth=3;fontSize=16;fontColor=#000000;fillColor=#FFFFFF;" parent="1" vertex="1">
                    <mxGeometry x="467" y="709" width="160" height="80" as="geometry"/>
                </mxCell>
                <mxCell id="34" value="" style="whiteSpace=wrap;html=1;aspect=fixed;fillColor=none;strokeColor=none;" parent="1" vertex="1">
                    <mxGeometry x="95.5" y="-26" width="893" height="893" as="geometry"/>
                </mxCell>
            </root>
        </mxGraphModel>
    </diagram>
    <diagram id="tGd_s-CNzjDmW67vISJv" name="Deployment ">
        <mxGraphModel dx="1936" dy="1317" grid="0" gridSize="10" guides="1" tooltips="1" connect="1" arrows="1" fold="1" page="1" pageScale="1" pageWidth="1100" pageHeight="850" background="#ffffff" math="0" shadow="0">
            <root>
                <mxCell id="0"/>
                <mxCell id="1" parent="0"/>
                <mxCell id="FaZExjSCR9z9La09tVvi-2" value="&lt;font style=&quot;font-size: 18px;&quot;&gt;&lt;b&gt;Database Server&lt;/b&gt;&lt;/font&gt;" style="shape=cube;whiteSpace=wrap;html=1;boundedLbl=1;backgroundOutline=1;darkOpacity=0.05;darkOpacity2=0.1;strokeColor=#000000;strokeWidth=3;fontFamily=Tahoma;fontSize=17;fontColor=#000000;fillColor=none;gradientColor=default;flipV=0;flipH=1;" parent="1" vertex="1">
                    <mxGeometry x="46" y="302" width="154" height="135" as="geometry"/>
                </mxCell>
                <mxCell id="FaZExjSCR9z9La09tVvi-4" value="&lt;b&gt;&lt;font style=&quot;font-size: 19px;&quot;&gt;Mongodb Server&lt;/font&gt;&lt;/b&gt;" style="text;html=1;strokeColor=none;fillColor=none;align=center;verticalAlign=middle;whiteSpace=wrap;rounded=0;strokeWidth=3;fontFamily=Tahoma;fontSize=18;fontColor=#000000;" parent="1" vertex="1">
                    <mxGeometry x="48" y="448" width="136" height="60" as="geometry"/>
                </mxCell>
                <mxCell id="FaZExjSCR9z9La09tVvi-5" value="&lt;font style=&quot;font-size: 18px;&quot;&gt;&lt;b&gt;Application server&lt;/b&gt;&lt;/font&gt;" style="shape=cube;whiteSpace=wrap;html=1;boundedLbl=1;backgroundOutline=1;darkOpacity=0.05;darkOpacity2=0.1;strokeColor=#000000;strokeWidth=3;fontFamily=Tahoma;fontSize=17;fontColor=#000000;fillColor=none;gradientColor=default;flipV=0;flipH=1;" parent="1" vertex="1">
                    <mxGeometry x="380" y="282" width="154" height="136" as="geometry"/>
                </mxCell>
                <mxCell id="FaZExjSCR9z9La09tVvi-6" value="&lt;b&gt;&lt;font style=&quot;font-size: 19px;&quot;&gt;App.py&lt;/font&gt;&lt;/b&gt;" style="text;html=1;strokeColor=none;fillColor=none;align=center;verticalAlign=middle;whiteSpace=wrap;rounded=0;strokeWidth=3;fontFamily=Tahoma;fontSize=18;fontColor=#000000;" parent="1" vertex="1">
                    <mxGeometry x="384" y="430" width="136" height="60" as="geometry"/>
                </mxCell>
                <mxCell id="FaZExjSCR9z9La09tVvi-7" value="&lt;font style=&quot;font-size: 18px;&quot;&gt;&lt;b&gt;Farmer 1&lt;/b&gt;&lt;/font&gt;" style="shape=cube;whiteSpace=wrap;html=1;boundedLbl=1;backgroundOutline=1;darkOpacity=0.05;darkOpacity2=0.1;strokeColor=#000000;strokeWidth=3;fontFamily=Tahoma;fontSize=17;fontColor=#000000;fillColor=none;gradientColor=default;flipV=0;flipH=1;" parent="1" vertex="1">
                    <mxGeometry x="840" y="47" width="154" height="136" as="geometry"/>
                </mxCell>
                <mxCell id="FaZExjSCR9z9La09tVvi-8" value="&lt;font style=&quot;font-size: 18px;&quot;&gt;&lt;b&gt;Farmer 2&lt;/b&gt;&lt;/font&gt;" style="shape=cube;whiteSpace=wrap;html=1;boundedLbl=1;backgroundOutline=1;darkOpacity=0.05;darkOpacity2=0.1;strokeColor=#000000;strokeWidth=3;fontFamily=Tahoma;fontSize=17;fontColor=#000000;fillColor=none;gradientColor=default;flipV=0;flipH=1;" parent="1" vertex="1">
                    <mxGeometry x="904" y="340" width="154" height="136" as="geometry"/>
                </mxCell>
                <mxCell id="FaZExjSCR9z9La09tVvi-9" value="&lt;font style=&quot;font-size: 18px;&quot;&gt;&lt;b&gt;Customer 1&lt;/b&gt;&lt;/font&gt;" style="shape=cube;whiteSpace=wrap;html=1;boundedLbl=1;backgroundOutline=1;darkOpacity=0.05;darkOpacity2=0.1;strokeColor=#000000;strokeWidth=3;fontFamily=Tahoma;fontSize=17;fontColor=#000000;fillColor=none;gradientColor=default;flipV=0;flipH=1;" parent="1" vertex="1">
                    <mxGeometry x="894" y="200" width="154" height="136" as="geometry"/>
                </mxCell>
                <mxCell id="FaZExjSCR9z9La09tVvi-10" value="&lt;font style=&quot;font-size: 18px;&quot;&gt;&lt;b&gt;Customer 2&lt;/b&gt;&lt;/font&gt;" style="shape=cube;whiteSpace=wrap;html=1;boundedLbl=1;backgroundOutline=1;darkOpacity=0.05;darkOpacity2=0.1;strokeColor=#000000;strokeWidth=3;fontFamily=Tahoma;fontSize=17;fontColor=#000000;fillColor=none;gradientColor=default;flipV=0;flipH=1;" parent="1" vertex="1">
                    <mxGeometry x="869" y="525" width="154" height="136" as="geometry"/>
                </mxCell>
                <mxCell id="FaZExjSCR9z9La09tVvi-11" value="" style="endArrow=none;html=1;strokeColor=#000000;strokeWidth=3;fontFamily=Tahoma;fontSize=19;fontColor=#000000;entryX=0;entryY=0;entryDx=154;entryDy=78;entryPerimeter=0;exitX=0;exitY=0;exitDx=0;exitDy=58;exitPerimeter=0;" parent="1" source="FaZExjSCR9z9La09tVvi-5" target="FaZExjSCR9z9La09tVvi-7" edge="1">
                    <mxGeometry width="50" height="50" relative="1" as="geometry">
                        <mxPoint x="491" y="248" as="sourcePoint"/>
                        <mxPoint x="541" y="198" as="targetPoint"/>
                    </mxGeometry>
                </mxCell>
                <mxCell id="FaZExjSCR9z9La09tVvi-12" value="" style="endArrow=none;html=1;strokeColor=#000000;strokeWidth=3;fontFamily=Tahoma;fontSize=19;fontColor=#000000;entryX=0;entryY=0;entryDx=154;entryDy=78;entryPerimeter=0;exitX=-0.01;exitY=0.472;exitDx=0;exitDy=0;exitPerimeter=0;" parent="1" source="FaZExjSCR9z9La09tVvi-5" target="FaZExjSCR9z9La09tVvi-9" edge="1">
                    <mxGeometry width="50" height="50" relative="1" as="geometry">
                        <mxPoint x="540" y="369" as="sourcePoint"/>
                        <mxPoint x="653" y="158" as="targetPoint"/>
                    </mxGeometry>
                </mxCell>
                <mxCell id="FaZExjSCR9z9La09tVvi-13" value="" style="endArrow=none;html=1;strokeColor=#000000;strokeWidth=3;fontFamily=Tahoma;fontSize=19;fontColor=#000000;exitX=0.005;exitY=0.671;exitDx=0;exitDy=0;exitPerimeter=0;entryX=0;entryY=0;entryDx=154;entryDy=78;entryPerimeter=0;" parent="1" source="FaZExjSCR9z9La09tVvi-5" target="FaZExjSCR9z9La09tVvi-8" edge="1">
                    <mxGeometry width="50" height="50" relative="1" as="geometry">
                        <mxPoint x="554" y="379" as="sourcePoint"/>
                        <mxPoint x="713" y="374" as="targetPoint"/>
                    </mxGeometry>
                </mxCell>
                <mxCell id="FaZExjSCR9z9La09tVvi-14" value="" style="endArrow=none;html=1;strokeColor=#000000;strokeWidth=3;fontFamily=Tahoma;fontSize=19;fontColor=#000000;entryX=0;entryY=0;entryDx=154;entryDy=78;entryPerimeter=0;exitX=0;exitY=0.747;exitDx=0;exitDy=0;exitPerimeter=0;" parent="1" source="FaZExjSCR9z9La09tVvi-5" target="FaZExjSCR9z9La09tVvi-10" edge="1">
                    <mxGeometry width="50" height="50" relative="1" as="geometry">
                        <mxPoint x="564" y="389" as="sourcePoint"/>
                        <mxPoint x="721" y="482" as="targetPoint"/>
                    </mxGeometry>
                </mxCell>
                <mxCell id="FaZExjSCR9z9La09tVvi-15" value="" style="endArrow=none;html=1;strokeColor=#000000;strokeWidth=3;fontFamily=Tahoma;fontSize=19;fontColor=#000000;exitX=0;exitY=0;exitDx=154;exitDy=78;exitPerimeter=0;entryX=0;entryY=0;entryDx=0;entryDy=57.5;entryPerimeter=0;" parent="1" source="FaZExjSCR9z9La09tVvi-5" target="FaZExjSCR9z9La09tVvi-2" edge="1">
                    <mxGeometry width="50" height="50" relative="1" as="geometry">
                        <mxPoint x="370" y="385" as="sourcePoint"/>
                        <mxPoint x="204" y="372" as="targetPoint"/>
                    </mxGeometry>
                </mxCell>
                <mxCell id="FaZExjSCR9z9La09tVvi-17" value="&lt;b&gt;&lt;font style=&quot;font-size: 19px;&quot;&gt;&amp;lt;&amp;lt; Private Network &amp;gt;&amp;gt;&lt;/font&gt;&lt;/b&gt;" style="text;html=1;strokeColor=none;fillColor=none;align=center;verticalAlign=middle;whiteSpace=wrap;rounded=0;strokeWidth=3;fontFamily=Tahoma;fontSize=18;fontColor=#000000;" parent="1" vertex="1">
                    <mxGeometry x="686" y="459" width="264" height="60" as="geometry"/>
                </mxCell>
                <mxCell id="FaZExjSCR9z9La09tVvi-19" value="&lt;b&gt;&lt;font style=&quot;font-size: 19px;&quot;&gt;&amp;lt;&amp;lt; Private Network &amp;gt;&amp;gt;&lt;/font&gt;&lt;/b&gt;" style="text;html=1;strokeColor=none;fillColor=none;align=center;verticalAlign=middle;whiteSpace=wrap;rounded=0;strokeWidth=3;fontFamily=Tahoma;fontSize=18;fontColor=#000000;" parent="1" vertex="1">
                    <mxGeometry x="630" y="336" width="264" height="60" as="geometry"/>
                </mxCell>
                <mxCell id="FaZExjSCR9z9La09tVvi-20" value="&lt;b&gt;&lt;font style=&quot;font-size: 19px;&quot;&gt;&amp;lt;&amp;lt; Private Network &amp;gt;&amp;gt;&lt;/font&gt;&lt;/b&gt;" style="text;html=1;strokeColor=none;fillColor=none;align=center;verticalAlign=middle;whiteSpace=wrap;rounded=0;strokeWidth=3;fontFamily=Tahoma;fontSize=18;fontColor=#000000;" parent="1" vertex="1">
                    <mxGeometry x="518" y="129" width="264" height="60" as="geometry"/>
                </mxCell>
                <mxCell id="FaZExjSCR9z9La09tVvi-21" value="&lt;b&gt;&lt;font style=&quot;font-size: 19px;&quot;&gt;&amp;lt;&amp;lt; Private Network &amp;gt;&amp;gt;&lt;/font&gt;&lt;/b&gt;" style="text;html=1;strokeColor=none;fillColor=none;align=center;verticalAlign=middle;whiteSpace=wrap;rounded=0;strokeWidth=3;fontFamily=Tahoma;fontSize=18;fontColor=#000000;" parent="1" vertex="1">
                    <mxGeometry x="626" y="240" width="264" height="60" as="geometry"/>
                </mxCell>
                <mxCell id="FaZExjSCR9z9La09tVvi-22" value="&lt;b&gt;&lt;font style=&quot;font-size: 19px;&quot;&gt;&amp;lt;&amp;lt; LAN &amp;gt;&amp;gt;&lt;/font&gt;&lt;/b&gt;" style="text;html=1;strokeColor=none;fillColor=none;align=center;verticalAlign=middle;whiteSpace=wrap;rounded=0;strokeWidth=3;fontFamily=Tahoma;fontSize=18;fontColor=#000000;" parent="1" vertex="1">
                    <mxGeometry x="158" y="312" width="264" height="60" as="geometry"/>
                </mxCell>
                <mxCell id="Caj7tVh6sIAPYbXNUAtE-2" value="" style="rounded=0;whiteSpace=wrap;html=1;strokeColor=none;fillColor=none;" parent="1" vertex="1">
                    <mxGeometry x="-1081" y="-433" width="1152" height="720" as="geometry"/>
                </mxCell>
            </root>
        </mxGraphModel>
    </diagram>
</mxfile>